<?xml version="1.0" standalone="no"?>
<!DOCTYPE svg PUBLIC "-//W3C//DTD SVG 20010904//EN"
 "http://www.w3.org/TR/2001/REC-SVG-20010904/DTD/svg10.dtd">
<svg version="1.0" xmlns="http://www.w3.org/2000/svg"
 width="512.000000pt" height="512.000000pt" viewBox="0 0 512.000000 512.000000"
 preserveAspectRatio="xMidYMid meet">

<g transform="translate(0.000000,512.000000) scale(0.100000,-0.100000)"
fill="#000000" stroke="none">
<path d="M2497 5003 c-37 -6 -92 -63 -101 -103 -3 -18 -6 -137 -6 -264 l0
-231 140 0 140 0 0 245 c0 213 -2 249 -18 279 -29 58 -85 85 -155 74z"/>
<path d="M1100 4422 c-68 -34 -99 -117 -66 -180 8 -15 96 -108 195 -207 l180
-179 95 99 94 100 -171 174 c-209 210 -248 233 -327 193z"/>
<path d="M3845 4420 c-23 -11 -115 -95 -212 -192 l-172 -173 98 -102 98 -102
186 187 c116 118 188 198 193 215 18 73 -16 145 -83 173 -43 19 -61 18 -108
-6z"/>
<path d="M2355 4125 c-153 -21 -252 -52 -385 -121 -150 -77 -238 -141 -347
-251 -263 -267 -393 -646 -354 -1032 36 -350 134 -549 420 -856 106 -113 138
-158 152 -208 6 -22 16 -122 23 -221 14 -210 27 -248 108 -321 83 -75 85 -75
567 -75 l426 0 50 24 c28 13 67 41 88 62 63 64 79 104 89 234 15 198 28 300
42 333 7 18 49 72 92 120 44 48 110 122 148 165 231 259 340 577 323 947 -15
328 -141 611 -377 845 -283 282 -669 411 -1065 355z m391 -225 c390 -77 719
-396 809 -785 57 -244 28 -535 -75 -750 -49 -102 -124 -203 -265 -355 -196
-213 -217 -264 -232 -575 -6 -125 -7 -131 -34 -157 l-27 -28 -389 0 c-353 0
-390 2 -409 18 -35 28 -44 56 -44 141 0 111 -27 307 -50 358 -28 65 -70 120
-171 229 -222 240 -293 357 -352 579 -18 68 -21 108 -22 270 0 165 3 202 23
279 102 402 454 726 852 785 152 23 236 21 386 -9z"/>
<path d="M512 3040 c-81 -50 -80 -179 3 -230 30 -19 49 -20 294 -20 l261 0 0
89 c0 48 3 109 6 135 l7 46 -269 0 c-252 0 -271 -1 -302 -20z"/>
<path d="M3984 3029 c3 -17 6 -78 6 -135 l0 -104 260 0 c289 0 304 3 340 63
40 64 15 158 -49 192 -25 12 -75 15 -297 15 l-266 0 6 -31z"/>
<path d="M1183 1777 c-78 -78 -146 -155 -152 -170 -37 -97 23 -187 124 -187
65 0 90 17 243 172 l114 115 -40 46 c-22 25 -61 73 -87 106 -25 34 -49 61 -54
61 -4 0 -71 -64 -148 -143z"/>
<path d="M3645 1820 c-44 -56 -81 -104 -83 -108 -1 -4 62 -72 141 -150 l144
-142 56 0 c51 0 61 4 93 33 38 35 53 89 39 144 -4 17 -62 84 -153 176 -80 81
-149 147 -152 147 -3 0 -42 -45 -85 -100z"/>
<path d="M2124 936 c-68 -30 -95 -116 -59 -186 31 -59 36 -60 467 -60 372 0
395 1 425 20 41 24 56 54 56 107 0 49 -22 86 -66 113 -30 19 -53 20 -412 20
-295 -1 -387 -4 -411 -14z"/>
<path d="M2108 594 c-58 -31 -78 -136 -37 -188 44 -56 45 -56 461 -56 362 0
385 1 415 20 44 27 66 64 66 114 0 49 -24 91 -64 112 -42 21 -801 20 -841 -2z"/>
<path d="M2230 260 c0 -31 57 -87 108 -107 60 -23 314 -26 376 -4 53 18 116
77 116 107 l0 24 -300 0 c-292 0 -300 -1 -300 -20z"/>
</g>
</svg>
